#define 1656071690399_width 30
#define 1656071690399_height 48
static char 1656071690399_bits[] = {
  0x54, 0x55, 0x55, 0x15, 0xFF, 0xFF, 0xFF, 0x3F, 0xFF, 0xFF, 0xFF, 0x3F, 
  0xFF, 0xFF, 0xFF, 0x3F, 0xFE, 0xFF, 0xFF, 0x1F, 0x02, 0x00, 0x00, 0x10, 
  0x02, 0x00, 0x00, 0x10, 0x02, 0x00, 0x00, 0x10, 0x02, 0x00, 0x00, 0x10, 
  0x02, 0x00, 0x00, 0x10, 0x02, 0x00, 0x00, 0x10, 0x02, 0x00, 0x00, 0x10, 
  0x04, 0x00, 0x00, 0x00, 0x04, 0x00, 0x00, 0x08, 0x04, 0x00, 0x00, 0x08, 
  0x08, 0x00, 0x00, 0x04, 0x10, 0x00, 0x00, 0x02, 0x20, 0x00, 0x00, 0x01, 
  0xC0, 0xFC, 0xCF, 0x00, 0x00, 0xF3, 0x13, 0x00, 0x00, 0xC8, 0x05, 0x00, 
  0x00, 0xD0, 0x02, 0x00, 0x00, 0x60, 0x01, 0x00, 0x00, 0x20, 0x01, 0x00, 
  0x00, 0x20, 0x01, 0x00, 0x00, 0x20, 0x01, 0x00, 0x00, 0x90, 0x02, 0x00, 
  0x00, 0x08, 0x04, 0x00, 0x00, 0x86, 0x18, 0x00, 0x80, 0x01, 0x60, 0x00, 
  0x60, 0x00, 0x00, 0x01, 0x10, 0x00, 0x00, 0x02, 0x08, 0x00, 0x00, 0x04, 
  0x04, 0x00, 0x00, 0x08, 0x04, 0xC0, 0x00, 0x08, 0x04, 0xC0, 0x00, 0x00, 
  0x02, 0xE0, 0x01, 0x10, 0x02, 0xF0, 0x03, 0x10, 0x02, 0xFC, 0x0F, 0x10, 
  0x02, 0xFE, 0x1F, 0x10, 0x82, 0xFF, 0x7F, 0x10, 0xE2, 0xFF, 0xFF, 0x11, 
  0xF2, 0xFF, 0xFF, 0x13, 0xFA, 0xFF, 0xFF, 0x1E, 0xFF, 0xFF, 0xFF, 0x3F, 
  0xFE, 0xFF, 0xFF, 0x3F, 0xFF, 0xFF, 0xFF, 0x3F, 0x6C, 0xDB, 0xB6, 0x1D, 
  };
