#define 1656068255424_width 48
#define 1656068255424_height 48
static char 1656068255424_bits[] = {
  0x00, 0x00, 0x00, 0x00, 0x00, 0x00, 0x00, 0x00, 0x00, 0x00, 0x00, 0x00, 
  0xF8, 0x01, 0x00, 0x00, 0xC0, 0x3F, 0xFC, 0x03, 0x00, 0x00, 0x80, 0x3F, 
  0x0C, 0x00, 0x00, 0x00, 0x00, 0x30, 0x0C, 0x00, 0xE0, 0x0F, 0x00, 0x30, 
  0x0C, 0x00, 0xFE, 0x7F, 0x00, 0x30, 0x0C, 0x80, 0x07, 0xE0, 0x01, 0x30, 
  0x0C, 0xE0, 0xE0, 0x07, 0x03, 0x30, 0x08, 0x70, 0xFE, 0x3F, 0x0E, 0x20, 
  0x00, 0x18, 0x07, 0xF0, 0x18, 0x00, 0x00, 0xCC, 0xE1, 0x83, 0x33, 0x00, 
  0x00, 0xE6, 0xFC, 0x3F, 0x67, 0x00, 0x00, 0x33, 0x0F, 0x78, 0x4E, 0x00, 
  0x00, 0x9B, 0xE3, 0xC3, 0xD8, 0x00, 0x80, 0xD9, 0xF9, 0x9F, 0x9B, 0x01, 
  0x80, 0xCC, 0x1C, 0x38, 0xB3, 0x01, 0xC0, 0x66, 0xC6, 0x61, 0x26, 0x03, 
  0xC0, 0x36, 0xF3, 0xCF, 0x6C, 0x03, 0x60, 0xB2, 0x19, 0x9C, 0x6D, 0x02, 
  0x60, 0x9B, 0xCC, 0xB1, 0x49, 0x02, 0x60, 0xDB, 0xE6, 0x37, 0x59, 0x06, 
  0x00, 0xDB, 0x36, 0x26, 0xDB, 0x06, 0x00, 0xDB, 0xB6, 0x6C, 0xDB, 0x06, 
  0x00, 0xDB, 0xB6, 0x6D, 0xDB, 0x06, 0x80, 0xC9, 0xB2, 0x6D, 0xDB, 0x06, 
  0xC0, 0x4D, 0x92, 0x2C, 0xDB, 0x06, 0x60, 0x6C, 0x9B, 0x64, 0xCB, 0x02, 
  0x00, 0x67, 0x9B, 0x24, 0xC9, 0x02, 0xC0, 0x33, 0xD9, 0x36, 0x49, 0x03, 
  0xC0, 0x98, 0xCD, 0xB6, 0x6D, 0x00, 0x00, 0xCE, 0x6C, 0xB2, 0x6D, 0x00, 
  0x80, 0x67, 0x66, 0x9B, 0x6C, 0x00, 0x00, 0x71, 0x36, 0xD9, 0x26, 0x00, 
  0x00, 0x1C, 0x9B, 0xC9, 0x36, 0x00, 0x00, 0xCE, 0xD9, 0x6D, 0x36, 0x00, 
  0x00, 0xE0, 0xCC, 0x64, 0x33, 0x00, 0x00, 0x38, 0x66, 0x36, 0x13, 0x00, 
  0x04, 0x80, 0x33, 0xB3, 0x01, 0x20, 0x0C, 0xC0, 0x99, 0x99, 0x01, 0x30, 
  0x0C, 0x00, 0xCC, 0xCC, 0x00, 0x30, 0x0C, 0x00, 0x66, 0x0C, 0x00, 0x30, 
  0x0C, 0x00, 0x20, 0x06, 0x00, 0x30, 0x0C, 0x00, 0x00, 0x00, 0x00, 0x30, 
  0xFC, 0x01, 0x00, 0x00, 0xC0, 0x3F, 0xFC, 0x03, 0x00, 0x00, 0x80, 0x1F, 
  0x00, 0x00, 0x00, 0x00, 0x00, 0x00, 0x00, 0x00, 0x00, 0x00, 0x00, 0x00, 
  };
