#define 1656068262548_width 48
#define 1656068262548_height 40
static char 1656068262548_bits[] = {
  0x00, 0x00, 0x00, 0x00, 0x00, 0x00, 0x00, 0x00, 0x00, 0x00, 0x00, 0x00, 
  0x00, 0x00, 0x00, 0x00, 0x00, 0x00, 0x00, 0x00, 0x00, 0x00, 0x00, 0x00, 
  0x00, 0x00, 0x00, 0x00, 0x00, 0x00, 0x00, 0x3E, 0x00, 0x00, 0x00, 0x00, 
  0x80, 0x0F, 0x00, 0x00, 0x00, 0x00, 0xE0, 0x00, 0x00, 0x00, 0x00, 0x00, 
  0x70, 0x1C, 0x00, 0x00, 0x00, 0x00, 0x10, 0x3E, 0x00, 0x00, 0x00, 0x00, 
  0x98, 0x03, 0x00, 0x00, 0x00, 0x00, 0xCC, 0x00, 0x00, 0x80, 0x2E, 0x00, 
  0x4C, 0x38, 0x00, 0xC0, 0xFF, 0x01, 0x66, 0x0E, 0x00, 0x40, 0x00, 0x03, 
  0x36, 0x03, 0x00, 0x20, 0x00, 0x06, 0x32, 0xF1, 0xFF, 0xFF, 0x01, 0x0C, 
  0x92, 0xF9, 0xFF, 0xFF, 0x03, 0x0C, 0x92, 0x0C, 0x00, 0x00, 0x03, 0x18, 
  0x93, 0x04, 0x00, 0x00, 0x06, 0x10, 0x92, 0x04, 0x00, 0x00, 0x1E, 0x30, 
  0x00, 0x04, 0x00, 0x00, 0x1E, 0x60, 0x00, 0x04, 0x00, 0x3F, 0x1E, 0x60, 
  0x00, 0x04, 0x00, 0xF3, 0x1E, 0x40, 0x00, 0x04, 0x80, 0x81, 0x1F, 0x40, 
  0x00, 0x04, 0x80, 0x01, 0x1E, 0x40, 0x00, 0x04, 0x00, 0x03, 0x0C, 0x40, 
  0x00, 0x0C, 0x00, 0x0F, 0x00, 0x40, 0x00, 0x04, 0x00, 0x3C, 0x00, 0x60, 
  0x00, 0x04, 0x00, 0x60, 0x00, 0x60, 0x00, 0x04, 0x00, 0xC0, 0x00, 0x20, 
  0x00, 0x04, 0x00, 0x80, 0x01, 0x30, 0x00, 0x04, 0x00, 0x00, 0x03, 0x18, 
  0x00, 0x0C, 0x00, 0x00, 0x0F, 0x0C, 0x00, 0xF8, 0xFF, 0xFF, 0x1D, 0x07, 
  0x00, 0xE0, 0xFF, 0xFF, 0xF0, 0x03, 0x00, 0x00, 0x00, 0x00, 0xC0, 0x00, 
  0x00, 0x00, 0x00, 0x00, 0x00, 0x00, 0x00, 0x00, 0x00, 0x00, 0x00, 0x00, 
  0x00, 0x00, 0x00, 0x00, 0x00, 0x00, 0x00, 0x00, 0x00, 0x00, 0x00, 0x00, 
  };
