#define 1656020053306_width 48
#define 1656020053306_height 48
static char 1656020053306_bits[] = {
  0x00, 0x00, 0x00, 0x01, 0x00, 0x00, 0x00, 0x00, 0xFC, 0x7F, 0x00, 0x00, 
  0x00, 0x80, 0xFF, 0xFF, 0x01, 0x00, 0x00, 0xE0, 0xFF, 0xFF, 0x07, 0x00, 
  0x00, 0xF8, 0x07, 0xE0, 0x1F, 0x00, 0x00, 0xFC, 0x00, 0x00, 0x3F, 0x00, 
  0x00, 0x3E, 0x00, 0x00, 0xFC, 0x00, 0x00, 0x1F, 0x00, 0x00, 0xF8, 0x01, 
  0x80, 0x07, 0x00, 0x00, 0xE0, 0x03, 0xC0, 0x07, 0x00, 0x00, 0xC0, 0x03, 
  0xE0, 0x01, 0x00, 0x00, 0x80, 0x07, 0xF0, 0x01, 0x00, 0x00, 0x00, 0x0F, 
  0xF0, 0x00, 0x03, 0x60, 0x00, 0x0F, 0x78, 0x80, 0x0F, 0xE0, 0x01, 0x1E, 
  0x78, 0x80, 0x0F, 0xF0, 0x03, 0x1C, 0x3C, 0xC0, 0x1F, 0xF0, 0x03, 0x3C, 
  0x3C, 0xC0, 0x1F, 0xF8, 0x03, 0x38, 0x1C, 0xC0, 0x1F, 0xF0, 0x03, 0x78, 
  0x1E, 0xC0, 0x1F, 0xF8, 0x03, 0x78, 0x1E, 0xC0, 0x0F, 0xF0, 0x03, 0x70, 
  0x1E, 0x80, 0x0F, 0xF0, 0x01, 0x70, 0x0E, 0x00, 0x07, 0xE0, 0x00, 0x70, 
  0x0E, 0x00, 0x00, 0x00, 0x00, 0x70, 0x0E, 0x00, 0x00, 0x00, 0x00, 0x70, 
  0x0E, 0x00, 0x00, 0x00, 0x00, 0x70, 0x0E, 0x08, 0x00, 0x00, 0x20, 0x70, 
  0x0E, 0x0E, 0x00, 0x00, 0x70, 0x70, 0x1E, 0x1E, 0x00, 0x00, 0x78, 0x70, 
  0x1E, 0x1C, 0x00, 0x00, 0x78, 0x78, 0x1C, 0x3C, 0x00, 0x00, 0x38, 0x78, 
  0x1C, 0x3C, 0x00, 0x00, 0x3C, 0x38, 0x3C, 0x78, 0x00, 0x00, 0x1E, 0x38, 
  0x3C, 0xF0, 0x00, 0x00, 0x1F, 0x3C, 0x78, 0xF0, 0x03, 0x80, 0x0F, 0x1C, 
  0x78, 0xE0, 0x07, 0xE0, 0x07, 0x1E, 0xF0, 0x80, 0x7F, 0xFE, 0x03, 0x0F, 
  0xE0, 0x01, 0xFF, 0xFF, 0x80, 0x0F, 0xE0, 0x03, 0xFC, 0x3F, 0x80, 0x07, 
  0xC0, 0x07, 0xE0, 0x07, 0xC0, 0x03, 0x80, 0x0F, 0x00, 0x00, 0xF0, 0x01, 
  0x00, 0x1F, 0x00, 0x00, 0xF8, 0x00, 0x00, 0x7E, 0x00, 0x00, 0x7E, 0x00, 
  0x00, 0xFC, 0x01, 0x80, 0x3F, 0x00, 0x00, 0xF0, 0x1F, 0xF4, 0x1F, 0x00, 
  0x00, 0xE0, 0xFF, 0xFF, 0x07, 0x00, 0x00, 0x00, 0xFF, 0xFF, 0x01, 0x00, 
  0x00, 0x00, 0xF8, 0x1F, 0x00, 0x00, 0x00, 0x00, 0x00, 0x00, 0x00, 0x00, 
  };
