#define 1656010386555_width 50
#define 1656010386555_height 50
static char 1656010386555_bits[] = {
  0x00, 0x00, 0x00, 0x00, 0x00, 0x00, 0x00, 0x00, 0x00, 0x00, 0x00, 0x00, 
  0x00, 0x00, 0x00, 0x00, 0x00, 0x00, 0x00, 0x00, 0x00, 0x00, 0x00, 0x00, 
  0x00, 0x00, 0x00, 0x00, 0x00, 0x00, 0x00, 0x00, 0x00, 0x00, 0x00, 0x00, 
  0x00, 0x00, 0x00, 0x00, 0x00, 0x00, 0x00, 0x00, 0x00, 0x00, 0x00, 0x00, 
  0x00, 0x00, 0x00, 0xF8, 0x7F, 0x00, 0x00, 0x00, 0x00, 0xC0, 0xFF, 0xFF, 
  0x07, 0x00, 0x00, 0x00, 0xE0, 0xFF, 0xFF, 0x3F, 0x00, 0x00, 0x00, 0xFC, 
  0xFF, 0xFF, 0xFF, 0x00, 0x00, 0x00, 0xFE, 0x1F, 0xC0, 0xFF, 0x03, 0x00, 
  0x80, 0xFF, 0x01, 0x00, 0xFC, 0x07, 0x00, 0xC0, 0x3F, 0x00, 0x00, 0xF0, 
  0x0F, 0x00, 0xF0, 0x0F, 0x00, 0x00, 0xC0, 0x3F, 0x00, 0xF0, 0x03, 0x00, 
  0x00, 0x00, 0x7F, 0x00, 0xFC, 0x01, 0xE0, 0x2F, 0x00, 0xFC, 0x00, 0xFC, 
  0x00, 0xFC, 0xFF, 0x01, 0xF8, 0x00, 0x3C, 0x80, 0xFF, 0xFF, 0x07, 0xF8, 
  0x00, 0x38, 0xC0, 0xFF, 0xFF, 0x1F, 0xE0, 0x00, 0x00, 0xF0, 0x7F, 0xF9, 
  0x3F, 0x00, 0x00, 0x00, 0xF8, 0x07, 0x80, 0xFF, 0x00, 0x00, 0x00, 0xFE, 
  0x01, 0x00, 0xFE, 0x01, 0x00, 0x00, 0x7E, 0x00, 0x00, 0xF8, 0x01, 0x00, 
  0x00, 0x3F, 0x00, 0x00, 0xE0, 0x03, 0x00, 0x00, 0x1E, 0x00, 0x00, 0xE0, 
  0x03, 0x00, 0x00, 0x06, 0xF0, 0x3F, 0x80, 0x01, 0x00, 0x00, 0x00, 0xF8, 
  0xFF, 0x00, 0x00, 0x00, 0x00, 0x00, 0xFE, 0xFF, 0x03, 0x00, 0x00, 0x00, 
  0x00, 0xFF, 0xFF, 0x03, 0x00, 0x00, 0x00, 0x80, 0x3F, 0xE0, 0x0F, 0x00, 
  0x00, 0x00, 0x80, 0x0F, 0xC0, 0x07, 0x00, 0x00, 0x00, 0x80, 0x07, 0x00, 
  0x07, 0x00, 0x00, 0x00, 0x00, 0x00, 0x00, 0x02, 0x00, 0x00, 0x00, 0x00, 
  0x00, 0x00, 0x00, 0x00, 0x00, 0x00, 0x00, 0x00, 0x07, 0x00, 0x00, 0x00, 
  0x00, 0x00, 0xC0, 0x0F, 0x00, 0x00, 0x00, 0x00, 0x00, 0xC0, 0x1F, 0x00, 
  0x00, 0x00, 0x00, 0x00, 0xE0, 0x1F, 0x00, 0x00, 0x00, 0x00, 0x00, 0xE0, 
  0x3F, 0x00, 0x00, 0x00, 0x00, 0x00, 0xE0, 0x1F, 0x00, 0x00, 0x00, 0x00, 
  0x00, 0xC0, 0x1F, 0x00, 0x00, 0x00, 0x00, 0x00, 0x80, 0x0F, 0x00, 0x00, 
  0x00, 0x00, 0x00, 0x80, 0x07, 0x00, 0x00, 0x00, 0x00, 0x00, 0x00, 0x00, 
  0x00, 0x00, 0x00, 0x00, 0x00, 0x00, 0x00, 0x00, 0x00, 0x00, 0x00, 0x00, 
  0x00, 0x00, 0x00, 0x00, 0x00, 0x00, 0x00, 0x00, 0x00, 0x00, 0x00, 0x00, 
  0x00, 0x00, 0x00, 0x00, 0x00, 0x00, 0x00, 0x00, 0x00, 0x00, 0x00, 0x00, 
  0x00, 0x00, };
